<?xml version="1.0" encoding="utf-8"?>
<!-- Generator: Adobe Illustrator 26.2.1, SVG Export Plug-In . SVG Version: 6.00 Build 0)  -->
<svg version="1.1" id="Layer_1" xmlns="http://www.w3.org/2000/svg" xmlns:xlink="http://www.w3.org/1999/xlink" x="0px" y="0px"
	 viewBox="0 0 1296 1008" style="enable-background:new 0 0 1296 1008;" xml:space="preserve">
<style type="text/css">
	.st0{fill:url(#SVGID_1_);}
</style>
<linearGradient id="SVGID_1_" gradientUnits="userSpaceOnUse" x1="188.673" y1="476.7012" x2="1069.4415" y2="476.7012">
	<stop  offset="0" style="stop-color:#AFFEFE"/>
	<stop  offset="1" style="stop-color:#02FE8E"/>
</linearGradient>
<path class="st0" d="M1066.2,633.32c2.09-3.9,3.24-18.08,3.24-22.42c0-21.52-27.81-38.96-62.12-38.96c-4.71,0-9.3,0.34-13.71,0.96
	c-15.7-30.74-47.66-51.79-84.55-51.79c-5.45,0-10.78,0.47-15.98,1.35c-3.41-66.81-58.67-119.93-126.33-119.93
	c-57.58,0-106.17,38.48-121.48,91.13c-6.6-3.56-13.61-6.46-20.93-8.64c3.01-10.99,4.62-22.55,4.62-34.49
	c0-72.04-58.4-130.45-130.45-130.45s-130.45,58.4-130.45,130.45c0,21.21,5.07,41.23,14.05,58.94
	c-43.67,5.13-79.56,35.69-92.47,76.46c-10.35-5.27-22.8-8.34-36.21-8.34c-34.36,0-62.47,30.19-64.77,55.74H1066.2z"/>
</svg>
