<?xml version="1.0" encoding="utf-8"?>
<!-- Generator: Adobe Illustrator 26.2.1, SVG Export Plug-In . SVG Version: 6.00 Build 0)  -->
<svg version="1.1" id="Layer_1" xmlns="http://www.w3.org/2000/svg" xmlns:xlink="http://www.w3.org/1999/xlink" x="0px" y="0px"
	 viewBox="0 0 1296 1008" style="enable-background:new 0 0 1296 1008;" xml:space="preserve">
<style type="text/css">
	.st0{fill:url(#SVGID_1_);}
</style>
<linearGradient id="SVGID_1_" gradientUnits="userSpaceOnUse" x1="104.5434" y1="483.2776" x2="907.981" y2="483.2776">
	<stop  offset="0" style="stop-color:#2BC4F3"/>
	<stop  offset="1" style="stop-color:#FFC0FA"/>
</linearGradient>
<path class="st0" d="M165.17,710.29h-60.62c1.6-3.91,3.98-7.57,7.15-10.74c12.79-12.79,33.53-12.79,46.32,0
	C161.19,702.72,163.57,706.38,165.17,710.29z M1112.3,641.05c1.15-5.37,1.76-10.92,1.76-16.59c0-47.41-41.97-85.84-93.74-85.84
	c-38.75,0-71.99,21.54-86.27,52.25c-11.5-26.74-38.07-45.48-69.02-45.48c-34.71,0-63.9,23.55-72.51,55.53
	c-6.2-8.27-14.96-14.73-25.2-18.36c19.36-32.54,30.51-70.78,30.51-111.71c0-118.51-93.55-214.59-208.94-214.59
	s-208.94,96.07-208.94,214.59c0,13.7,1.27,27.1,3.66,40.09c-6.32-1.11-12.83-1.69-19.47-1.69c-61.13,0-110.68,49.05-110.68,109.55
	c0,12.66,2.18,24.82,6.17,36.13c-4.54-0.73-9.24-1.12-14.08-1.12c-36.8,0-66.64,22.25-66.64,49.69c0,2.3,0.23,4.56,0.63,6.78
	h1013.65c2.89-5,4.45-10.31,4.45-15.81C1197.63,667.67,1160.75,645.42,1112.3,641.05z"/>
</svg>
