<?xml version="1.0" encoding="utf-8"?>
<!-- Generator: Adobe Illustrator 26.2.1, SVG Export Plug-In . SVG Version: 6.00 Build 0)  -->
<svg version="1.1" id="Layer_1" xmlns="http://www.w3.org/2000/svg" xmlns:xlink="http://www.w3.org/1999/xlink" x="0px" y="0px"
	 viewBox="0 0 1296 1008" style="enable-background:new 0 0 1296 1008;" xml:space="preserve">
<style type="text/css">
	.st0{fill:url(#SVGID_1_);}
</style>
<linearGradient id="SVGID_1_" gradientUnits="userSpaceOnUse" x1="182.166" y1="505.5835" x2="1092.8813" y2="505.5835">
	<stop  offset="0" style="stop-color:#2BC4F3"/>
	<stop  offset="0.5" style="stop-color:#00AEEE"/>
	<stop  offset="1" style="stop-color:#0095DA"/>
</linearGradient>
<path class="st0" d="M985.87,657.21c0,15.07-3.51,29.4-9.83,42.35H187.7c-0.96-3.85-1.46-7.81-1.46-11.86
	c0-36.49,40.58-66.07,90.64-66.07c12.37,0,24.17,1.81,34.91,5.08c-0.12-1.11-0.18-2.24-0.18-3.39c0-13.99,9.16-25.88,21.95-30.32
	c-6.55-20.63-10.09-42.6-10.09-65.39c0-119.29,96.71-216,216-216s216,96.71,216,216c0,4.97-0.18,9.89-0.51,14.77
	c1.83-0.24,3.69-0.37,5.6-0.37c20.12,0,36.67,13.92,38.74,31.79c19.55-13.56,44-21.63,70.53-21.63
	C933.91,552.17,985.87,599.2,985.87,657.21z M819.84,518.29c17.78,0,32.19-14.41,32.19-32.19c0-17.78-14.41-32.19-32.19-32.19
	s-32.19,14.41-32.19,32.19C787.65,503.88,802.06,518.29,819.84,518.29z M1044.31,660.59c-22.78,0-41.59,16.97-44.49,38.96h88.98
	C1085.9,677.57,1067.09,660.59,1044.31,660.59z"/>
</svg>
