<?xml version="1.0" encoding="utf-8"?>
<!-- Generator: Adobe Illustrator 26.2.1, SVG Export Plug-In . SVG Version: 6.00 Build 0)  -->
<svg version="1.1" id="Layer_1" xmlns="http://www.w3.org/2000/svg" xmlns:xlink="http://www.w3.org/1999/xlink" x="0px" y="0px"
	 viewBox="0 0 1296 1008" style="enable-background:new 0 0 1296 1008;" xml:space="preserve">
<style type="text/css">
	.st0{fill:#F2F2F2;}
</style>
<path class="st0" d="M1203.78,692.78c4.82-18.1,7.4-37.12,7.4-56.75c0-120.23-96.33-217.69-215.15-217.69
	c-85.33,0-159.05,50.26-193.84,123.12c-5.57-0.75-11.27-1.14-17.08-1.14c-28.26,0-54.12,9.19-74.08,24.42
	c-2.46-16.7-16.52-29.5-33.5-29.5c-2.15,0-4.24,0.21-6.27,0.6c0.78-7.44,1.19-14.98,1.19-22.63c0-118.83-97.09-215.15-216.85-215.15
	s-216.85,96.33-216.85,215.15c0,21.85,3.29,42.93,9.4,62.8c-14.69,7.2-24.64,21.13-24.64,37.15c0,0.38,0.02,0.75,0.03,1.13
	c-12.06-6.15-25.57-9.6-39.84-9.6c-47.77,0-87.06,38.6-91.84,88.09H1203.78z"/>
</svg>
