<?xml version="1.0" encoding="utf-8"?>
<!-- Generator: Adobe Illustrator 26.2.1, SVG Export Plug-In . SVG Version: 6.00 Build 0)  -->
<svg version="1.1" id="Layer_1" xmlns="http://www.w3.org/2000/svg" xmlns:xlink="http://www.w3.org/1999/xlink" x="0px" y="0px"
	 viewBox="0 0 1296 1008" style="enable-background:new 0 0 1296 1008;" xml:space="preserve">
<style type="text/css">
	.st0{fill:#F2F2F2;}
</style>
<path class="st0" d="M1126.74,640.27c-12.05-47.51-43.02-81.32-79.32-81.32c-15.87,0-30.71,6.46-43.41,17.7
	c-3.37-12.16-14.51-21.09-27.75-21.09c-4.87,0-9.46,1.22-13.49,3.35c3.28-13.88,5.02-28.33,5.02-43.16
	c0-107.13-90.26-193.98-201.6-193.98c-104.32,0-190.13,76.24-200.54,173.96c-19.76-11.59-41.96-18.1-65.44-18.1
	c-57.21,0-106.88,38.64-131.87,95.32c-13.3-9.86-29.81-15.7-47.7-15.7c-43.97,0-79.62,35.27-79.62,78.78c0,1.42,0.04,2.83,0.12,4.24
	H1126.74z"/>
</svg>
