<?xml version="1.0" encoding="utf-8"?>
<!-- Generator: Adobe Illustrator 26.2.1, SVG Export Plug-In . SVG Version: 6.00 Build 0)  -->
<svg version="1.1" id="Layer_1" xmlns="http://www.w3.org/2000/svg" xmlns:xlink="http://www.w3.org/1999/xlink" x="0px" y="0px"
	 viewBox="0 0 1296 1008" style="enable-background:new 0 0 1296 1008;" xml:space="preserve">
<style type="text/css">
	.st0{fill:url(#SVGID_1_);}
</style>
<linearGradient id="SVGID_1_" gradientUnits="userSpaceOnUse" x1="184.5491" y1="449.6777" x2="1180.6882" y2="449.6777">
	<stop  offset="5.618000e-03" style="stop-color:#8AD0C3"/>
	<stop  offset="1" style="stop-color:#DCFFFF"/>
</linearGradient>
<path class="st0" d="M682.23,570.81c1.6-1.47,3.16-2.96,4.7-4.49c-0.31,1.47-0.56,2.97-0.71,4.49H682.23z M1049.83,640.27H189.7
	c-0.04-0.84-0.07-1.69-0.07-2.54c0-34.15,31.1-61.84,69.46-61.84c14.27,0,27.53,3.84,38.57,10.41c-0.84-4.2-1.3-8.52-1.3-12.95
	c0-38.83,33.75-70.31,75.39-70.31c7.83,0,15.37,1.11,22.47,3.18c-8.47-20.85-13.15-43.66-13.15-67.55
	c0-99.18,80.4-179.58,179.58-179.58s179.58,80.4,179.58,179.58c0,36.3-10.78,70.08-29.31,98.33c5.08-2.22,10.7-3.46,16.6-3.46
	c12.73,0,24.12,5.74,31.73,14.77c14.44-43.99,55.83-75.75,104.64-75.75c60.42,0,109.47,48.66,110.1,108.93
	c6.13-1.42,12.68-2.2,19.5-2.2c34.15,0,61.83,19.34,61.83,43.2C1055.32,628.82,1053.35,634.84,1049.83,640.27z M686.93,566.32
	c-1.54,1.52-3.11,3.02-4.7,4.49h3.99C686.38,569.28,686.62,567.79,686.93,566.32z M232.83,531.84c26.67,0,48.28-21.62,48.28-48.28
	c0-26.67-21.62-48.28-48.28-48.28s-48.28,21.62-48.28,48.28C184.55,510.23,206.17,531.84,232.83,531.84z M1081.58,528.45
	c7.31,0,14.35-1.19,20.93-3.36c-3.09,5.8-4.84,12.42-4.84,19.45c0,22.92,18.58,41.51,41.51,41.51c22.92,0,41.51-18.58,41.51-41.51
	s-18.58-41.51-41.51-41.51c-1.84,0-3.64,0.13-5.42,0.36c9.21-11.46,14.73-26.02,14.73-41.87c0-36.96-29.96-66.92-66.92-66.92
	s-66.92,29.96-66.92,66.92S1044.62,528.45,1081.58,528.45z"/>
</svg>
