<?xml version="1.0" encoding="utf-8"?>
<!-- Generator: Adobe Illustrator 26.2.1, SVG Export Plug-In . SVG Version: 6.00 Build 0)  -->
<svg version="1.1" id="Layer_1" xmlns="http://www.w3.org/2000/svg" xmlns:xlink="http://www.w3.org/1999/xlink" x="0px" y="0px"
	 viewBox="0 0 1296 1008" style="enable-background:new 0 0 1296 1008;" xml:space="preserve">
<style type="text/css">
	.st0{fill:#E9FFD2;}
</style>
<g>
	<path class="st0" d="M265.02,664.55c-19.62,0-35.77,14.82-37.88,33.88h75.76C300.79,679.37,284.64,664.55,265.02,664.55z"/>
	<path class="st0" d="M1009.58,556.12c-30.44,0-58.27,11.15-79.64,29.59c0.01-0.26,0.02-0.53,0.02-0.79
		c0-14.03-11.38-25.41-25.41-25.41c-1.73,0-3.42,0.17-5.05,0.5c25.54-34.79,40.63-77.71,40.63-124.17
		c0-116.02-94.05-210.07-210.07-210.07s-210.07,94.05-210.07,210.07c0,21.29,3.18,41.84,9.07,61.21
		c-8.29-2.35-17.01-3.61-26.01-3.61c-54.27,0-98.26,45.51-98.26,101.65c0,14.08,2.77,27.5,7.78,39.69
		c-10.25-6.91-22.16-10.89-34.88-10.89c-36.64,0-66.63,32.87-69.25,74.54h821.44c1.11-6.61,1.7-13.4,1.7-20.33
		C1131.56,610.74,1076.95,556.12,1009.58,556.12z"/>
</g>
</svg>
