<?xml version="1.0" encoding="utf-8"?>
<!-- Generator: Adobe Illustrator 26.2.1, SVG Export Plug-In . SVG Version: 6.00 Build 0)  -->
<svg version="1.1" id="Layer_1" xmlns="http://www.w3.org/2000/svg" xmlns:xlink="http://www.w3.org/1999/xlink" x="0px" y="0px"
	 viewBox="0 0 1296 1008" style="enable-background:new 0 0 1296 1008;" xml:space="preserve">
<style type="text/css">
	.st0{fill:url(#SVGID_1_);}
</style>
<linearGradient id="SVGID_1_" gradientUnits="userSpaceOnUse" x1="108.314" y1="477.6306" x2="1187.4647" y2="477.6306">
	<stop  offset="0" style="stop-color:#FFA9DA"/>
	<stop  offset="1" style="stop-color:#FFF2FF"/>
</linearGradient>
<path class="st0" d="M1187.05,714.81c0.27-1.94,0.42-3.92,0.42-5.93c0-23.86-19.34-43.2-43.2-43.2c-8.57,0-16.54,2.5-23.26,6.8
	c-3.8-37.13-35.17-66.1-73.31-66.1c-1.51,0-3,0.06-4.48,0.15c15.36-32.99,23.96-69.78,23.96-108.57
	c0-142.22-115.29-257.51-257.51-257.51S552.17,355.74,552.17,497.96c0,4.79,0.14,9.56,0.4,14.29c-6.09-2.65-12.82-4.12-19.88-4.12
	c-8.41,0-16.33,2.09-23.28,5.76c0.27-3.3,0.41-6.63,0.41-9.99c0-66.9-54.23-121.13-121.13-121.13s-121.13,54.23-121.13,121.13
	c0,19.21,4.48,37.38,12.44,53.52c-3.36-1.19-6.98-1.85-10.75-1.85c-16.59,0-30.24,12.55-31.99,28.67
	c-12.21-6.4-26.11-10.03-40.85-10.03c-48.65,0-88.09,39.44-88.09,88.09c0,19.69,6.47,37.85,17.38,52.52H1187.05z"/>
</svg>
