<?xml version="1.0" encoding="utf-8"?>
<!-- Generator: Adobe Illustrator 26.2.1, SVG Export Plug-In . SVG Version: 6.00 Build 0)  -->
<svg version="1.1" id="Layer_1" xmlns="http://www.w3.org/2000/svg" xmlns:xlink="http://www.w3.org/1999/xlink" x="0px" y="0px"
	 viewBox="0 0 1296 1008" style="enable-background:new 0 0 1296 1008;" xml:space="preserve">
<style type="text/css">
	.st0{fill:#DCCCFF;}
</style>
<path class="st0" d="M1120.26,672.45c5.04-9.62,7.91-20.57,7.91-32.19c0-38.36-31.1-69.46-69.46-69.46c-9.71,0-18.94,2-27.33,5.59
	c2.33-5.93,3.62-12.39,3.62-19.15c0-29-23.51-52.52-52.52-52.52c-10.39,0-20.06,3.03-28.21,8.23
	c-10.81-45.52-51.72-79.38-100.54-79.38c-36.2,0-68.04,18.61-86.5,46.79c-1.2-15.75-14.34-28.15-30.4-28.15
	c-6.28,0-12.11,1.9-16.96,5.15c-0.87-90.94-74.85-164.4-166-164.4c-91.69,0-166.02,74.33-166.02,166.02
	c0,31.04,8.53,60.09,23.36,84.94c-3.56-2.29-7.8-3.62-12.34-3.62c-12.09,0-21.98,9.38-22.81,21.25
	c-15.79-11.25-35.11-17.87-55.97-17.87c-53.33,0-96.56,43.23-96.56,96.56c0,11.29,1.94,22.12,5.5,32.19H1120.26z M543.24,624.67
	c-0.02,0.02-0.04,0.04-0.06,0.07c0-0.02-0.01-0.05-0.01-0.07C543.2,624.67,543.22,624.67,543.24,624.67z"/>
</svg>
