<svg xmlns="http://www.w3.org/2000/svg" fill="none" viewBox="0 0 153 153">
  <path fill="#000" d="M116.995 99.8423c3.607 5.5337 2.079 11.8377-1.273 15.3277-3.293 3.429-9.197 5.231-14.91 2.104-.075 3.403-1.2244 6.344-3.6404 8.72-2.4159 2.375-5.3298 3.515-8.7013 3.493-5.3342-.035-10.8144-3.933-11.8651-10.542-.6719 3.878-2.5454 6.806-5.7825 8.798-2.177 1.34-4.571 1.927-7.1043 1.716-6.293-.522-9.5824-4.07-11.3381-12.111-5.5843 2.625-10.8133 2.188-15.0478-2.485-4.1303-4.557-4.1204-9.732-1.1989-14.9009-17.0474-.7945-28.4918-9.2415-34.52709-25.4326H151.393c-3.561 13.6335-17.702 25.9225-34.398 25.3128Zm-40.3722-6.2946c-.3244-.7731-.586-1.4738-.907-2.1468-1.742-3.6443-3.8479-6.9987-7.7442-8.6817-4.2405-1.8321-8.7151-.0668-9.5984 3.7602-.6658 2.8862.0143 5.6569 1.1565 8.2792 3.4095 7.8294 9.4651 13.0394 16.8904 16.8414.1355.069.3971.012.5425-.079 2.3047-1.431 4.7598-2.677 6.8658-4.362 5.43-4.34 9.8082-9.4806 11.0969-16.6311.733-4.0661-.613-7.0677-3.643-8.0334-3.4772-1.1093-6.5144-.1502-9.1479 2.2445-2.6336 2.3947-4.229 5.4537-5.5116 8.8103v-.0016ZM58.8407 62.4443c-7.1141.1016-14.2161-.1722-20.9371-2.8712-3.5895-1.4439-6.7787-3.4709-7.7761-7.5702-1.032-4.2516.8311-7.675 3.5577-10.6832 4.681-5.1699 10.707-8.2946 17.0485-10.8489 9.5725-3.8557 19.5641-5.9054 29.8311-6.6635 9.4613-.6957 18.8488-.3368 28.0192 2.3561 4.547 1.3351 8.898 3.1423 12.144 6.7971 4.24 4.7779 3.443 10.4911-2.084 15.0647-5.057 4.1837-11.07 6.4459-17.235 8.3321-3.1866.9751-6.4374 1.7581-9.6922 2.4847-.505.1105-1.1807-.5427-1.7777-.8426.3916-.5383.6873-1.419 1.1907-1.5615 5.7335-1.6233 11.4362-3.3395 16.4662-6.6513 1.575-1.037 3.02-2.4207 4.168-3.9204 1.381-1.805.865-3.8254-1.066-5.3041-2.935-2.2462-6.44-3.0424-9.978-3.446-17.1549-1.9569-33.7848.2451-49.7022 6.9859-2.8984 1.227-5.5908 3.2495-7.9369 5.3875-2.346 2.138-1.7997 4.8038.8872 6.5707 3.3511 2.2043 7.2017 2.9116 11.081 3.2782 3.5543.3363 7.1422.301 10.7064.5577.5507.0398 1.0558.7664 1.5817 1.175-.5034.4578-.9847 1.2766-1.515 1.3097-2.3196.1464-4.653.0635-6.9815.0635Z"/>
  <path fill="#000" d="M76.5589 104.133c1.3217-2.2 2.6671-4.6236 4.2108-6.9112.6977-1.0337 1.7953-2.3616 3.2018-1.2938 1.3768 1.0491.3558 2.466-.4196 3.3307-2.123 2.3683-4.441 4.5623-6.6956 6.8103-.0821.082-.3822.089-.4593.011-2.3356-2.371-4.6767-4.737-6.9566-7.1614-.374-.3982-.5976-1.0492-.6515-1.6052-.0446-.4599.1321-1.2092.4477-1.3738.4687-.2446 1.3294-.3313 1.6995-.0519.9043.6808 1.7832 1.5085 2.3824 2.4605 1.2265 1.9478 2.2634 4.0168 3.2404 5.7848Z"/>
</svg>
